<svg xmlns="http://www.w3.org/2000/svg" viewBox="0 0 100 100" width="100" height="100"><g fill="none" stroke="#e7c884" stroke-width="2.5" stroke-linecap="round" stroke-linejoin="round"><line x1="22" y1="71" x2="78" y2="71" opacity="0.55"></line><rect x="22.8" y="55" width="7.4" height="16" rx="3.7"></rect><rect x="34.55" y="47" width="7.4" height="24" rx="3.7"></rect><rect x="58.05" y="47" width="7.4" height="24" rx="3.7"></rect><rect x="69.8" y="55" width="7.4" height="16" rx="3.7"></rect><rect x="45.8" y="41" width="8.4" height="30" rx="4.2"></rect><line x1="50" y1="41" x2="50" y2="38"></line><path d="M50 24 C53.182 28.48 54.3 32.8 52.236 39.36 Q50 40.96 47.764 39.36 C45.7 32.8 46.818 28.48 50 24 Z"></path><path d="M50 29.44 C51.3244 32.1024 51.892 34.432 50.8514 37.76 Q50 38.3424 49.1486 37.76 C48.108 34.432 48.6756 32.1024 50 29.44 Z" stroke-width="2" opacity="0.85"></path></g></svg>