<svg xmlns="http://www.w3.org/2000/svg" viewBox="0 0 64 64" width="64" height="64"><defs><radialGradient id="bg" cx="50%" cy="36%" r="78%"><stop offset="0%" stop-color="#231a15"></stop><stop offset="46%" stop-color="#15111b"></stop><stop offset="100%" stop-color="#0a0810"></stop></radialGradient></defs><rect x="0" y="0" width="64" height="64" rx="14.3" fill="url(#bg)"></rect><g transform="translate(-8.96 -6.50) scale(0.8192)"><g><line x1="22" y1="71" x2="78" y2="71" stroke="#a87f38" stroke-width="2" stroke-linecap="round" opacity="0.5"></line><rect x="22.8" y="55" width="7.4" height="16" rx="3.7" fill="#a87f38"></rect><rect x="34.55" y="47" width="7.4" height="24" rx="3.7" fill="#d9b46a"></rect><rect x="58.05" y="47" width="7.4" height="24" rx="3.7" fill="#d9b46a"></rect><rect x="69.8" y="55" width="7.4" height="16" rx="3.7" fill="#a87f38"></rect><rect x="45.8" y="41" width="8.4" height="30" rx="4.2" fill="#f7e9c8"></rect><rect x="49.1" y="38" width="1.8" height="3.2" rx="0.9" fill="#7c5826"></rect><path d="M50 24 C53.182 28.48 54.3 32.8 52.236 39.36 Q50 40.96 47.764 39.36 C45.7 32.8 46.818 28.48 50 24 Z" fill="#ff9f38"></path><path d="M50 29.44 C51.3244 32.1024 51.892 34.432 50.8514 37.76 Q50 38.3424 49.1486 37.76 C48.108 34.432 48.6756 32.1024 50 29.44 Z" fill="#ffe9a6"></path></g></g></svg>